<mxfile host="app.diagrams.net" modified="2021-02-17T15:53:05.362Z" agent="5.0 (Windows NT 10.0; Win64; x64) AppleWebKit/537.36 (KHTML, like Gecko) Chrome/81.0.4044.122 Safari/537.36" etag="gFgr2cuc1N8ZuYEctbmV" version="13.9.3" type="github">
  <diagram name="Page-1" id="e7e014a7-5840-1c2e-5031-d8a46d1fe8dd">
    <mxGraphModel dx="1673" dy="934" grid="1" gridSize="10" guides="1" tooltips="1" connect="1" arrows="1" fold="1" page="1" pageScale="1" pageWidth="1169" pageHeight="826" background="#ffffff" math="0" shadow="0">
      <root>
        <mxCell id="0" />
        <mxCell id="1" parent="0" />
        <mxCell id="2" value="Load" style="swimlane;whiteSpace=wrap" parent="1" vertex="1">
          <mxGeometry x="120" y="240" width="535" height="810" as="geometry" />
        </mxCell>
        <mxCell id="5" value="" style="ellipse;shape=startState;fillColor=#000000;strokeColor=#ff0000;" parent="2" vertex="1">
          <mxGeometry x="100" y="60" width="30" height="30" as="geometry" />
        </mxCell>
        <mxCell id="6" value="" style="edgeStyle=elbowEdgeStyle;elbow=horizontal;verticalAlign=bottom;endArrow=open;endSize=8;strokeColor=#FF0000;endFill=1;rounded=0" parent="2" source="5" target="7" edge="1">
          <mxGeometry x="100" y="40" as="geometry">
            <mxPoint x="115" y="110" as="targetPoint" />
            <Array as="points">
              <mxPoint x="115" y="90" />
            </Array>
          </mxGeometry>
        </mxCell>
        <mxCell id="FQLcUKkCnjxLBZKhxJ8X-41" value="&lt;b&gt;OpenMF4&lt;/b&gt;" style="edgeLabel;html=1;align=center;verticalAlign=middle;resizable=0;points=[];" vertex="1" connectable="0" parent="6">
          <mxGeometry relative="1" as="geometry">
            <mxPoint x="35" y="-10" as="offset" />
          </mxGeometry>
        </mxCell>
        <mxCell id="7" value="Choose MF4s" style="" parent="2" vertex="1">
          <mxGeometry x="60" y="110" width="110" height="20" as="geometry" />
        </mxCell>
        <mxCell id="FQLcUKkCnjxLBZKhxJ8X-68" style="edgeStyle=orthogonalEdgeStyle;rounded=0;orthogonalLoop=1;jettySize=auto;html=1;entryX=0.5;entryY=0;entryDx=0;entryDy=0;" edge="1" parent="2" source="8" target="10">
          <mxGeometry relative="1" as="geometry" />
        </mxCell>
        <mxCell id="FQLcUKkCnjxLBZKhxJ8X-69" value="&lt;b&gt;LoadMF4&lt;/b&gt;" style="edgeLabel;html=1;align=center;verticalAlign=middle;resizable=0;points=[];" vertex="1" connectable="0" parent="FQLcUKkCnjxLBZKhxJ8X-68">
          <mxGeometry x="0.8046" relative="1" as="geometry">
            <mxPoint x="30" y="-2.33" as="offset" />
          </mxGeometry>
        </mxCell>
        <mxCell id="8" value="Select MF4s&#xa;MF4LogListValueChanged" style="fontStyle=2" parent="2" vertex="1">
          <mxGeometry x="40" y="140" width="150" height="40" as="geometry" />
        </mxCell>
        <mxCell id="9" value="" style="endArrow=open;strokeColor=#FF0000;endFill=1;rounded=0" parent="2" source="7" target="8" edge="1">
          <mxGeometry relative="1" as="geometry">
            <Array as="points" />
          </mxGeometry>
        </mxCell>
        <mxCell id="FQLcUKkCnjxLBZKhxJ8X-70" style="edgeStyle=orthogonalEdgeStyle;rounded=0;orthogonalLoop=1;jettySize=auto;html=1;exitX=0.5;exitY=1;exitDx=0;exitDy=0;entryX=0.5;entryY=0;entryDx=0;entryDy=0;" edge="1" parent="2" source="10" target="FQLcUKkCnjxLBZKhxJ8X-45">
          <mxGeometry relative="1" as="geometry" />
        </mxCell>
        <mxCell id="10" value="Modify JSON &amp; .xml configs&#xa; ModifyGenerateTraces" style="fontStyle=0" parent="2" vertex="1">
          <mxGeometry x="35" y="202" width="160" height="40" as="geometry" />
        </mxCell>
        <mxCell id="FQLcUKkCnjxLBZKhxJ8X-74" style="edgeStyle=orthogonalEdgeStyle;rounded=0;orthogonalLoop=1;jettySize=auto;html=1;" edge="1" parent="2" source="FQLcUKkCnjxLBZKhxJ8X-45" target="FQLcUKkCnjxLBZKhxJ8X-72">
          <mxGeometry relative="1" as="geometry">
            <mxPoint x="245" y="355" as="targetPoint" />
            <Array as="points">
              <mxPoint x="255" y="280" />
              <mxPoint x="255" y="355" />
            </Array>
          </mxGeometry>
        </mxCell>
        <mxCell id="FQLcUKkCnjxLBZKhxJ8X-75" value="No" style="edgeLabel;html=1;align=center;verticalAlign=middle;resizable=0;points=[];" vertex="1" connectable="0" parent="FQLcUKkCnjxLBZKhxJ8X-74">
          <mxGeometry x="-0.1863" relative="1" as="geometry">
            <mxPoint x="15" y="7.33" as="offset" />
          </mxGeometry>
        </mxCell>
        <mxCell id="FQLcUKkCnjxLBZKhxJ8X-45" value="LM2 Tracks" style="rhombus;fillColor=#ffffc0;strokeColor=#ff0000;" vertex="1" parent="2">
          <mxGeometry x="75" y="260" width="80" height="40" as="geometry" />
        </mxCell>
        <mxCell id="FQLcUKkCnjxLBZKhxJ8X-57" value="Extract the Trace CSV File data&#xa;OperateTraceData" style="fontStyle=2" vertex="1" parent="2">
          <mxGeometry x="27.5" y="394" width="175" height="40" as="geometry" />
        </mxCell>
        <mxCell id="FQLcUKkCnjxLBZKhxJ8X-62" style="edgeStyle=orthogonalEdgeStyle;rounded=0;orthogonalLoop=1;jettySize=auto;html=1;entryX=0.5;entryY=0;entryDx=0;entryDy=0;exitX=0.475;exitY=0.994;exitDx=0;exitDy=0;exitPerimeter=0;" edge="1" parent="2" source="FQLcUKkCnjxLBZKhxJ8X-60" target="FQLcUKkCnjxLBZKhxJ8X-57">
          <mxGeometry relative="1" as="geometry">
            <mxPoint x="115" y="384" as="sourcePoint" />
          </mxGeometry>
        </mxCell>
        <mxCell id="FQLcUKkCnjxLBZKhxJ8X-60" value="" style="fontStyle=2" vertex="1" parent="2">
          <mxGeometry x="10" y="324" width="222.5" height="56" as="geometry" />
        </mxCell>
        <mxCell id="FQLcUKkCnjxLBZKhxJ8X-72" value="Extract the Track data from CSV File &#xa;OperateTracksData" style="fontStyle=2" vertex="1" parent="2">
          <mxGeometry x="35" y="333" width="195" height="38" as="geometry" />
        </mxCell>
        <mxCell id="FQLcUKkCnjxLBZKhxJ8X-61" style="edgeStyle=orthogonalEdgeStyle;rounded=0;orthogonalLoop=1;jettySize=auto;html=1;exitX=0.5;exitY=1;exitDx=0;exitDy=0;" edge="1" parent="2">
          <mxGeometry relative="1" as="geometry">
            <mxPoint x="114.5" y="300" as="sourcePoint" />
            <mxPoint x="115.5" y="324" as="targetPoint" />
          </mxGeometry>
        </mxCell>
        <mxCell id="FQLcUKkCnjxLBZKhxJ8X-73" value="Yes" style="edgeLabel;html=1;align=center;verticalAlign=middle;resizable=0;points=[];" vertex="1" connectable="0" parent="FQLcUKkCnjxLBZKhxJ8X-61">
          <mxGeometry x="-0.2267" y="1" relative="1" as="geometry">
            <mxPoint x="13.5" as="offset" />
          </mxGeometry>
        </mxCell>
        <mxCell id="FQLcUKkCnjxLBZKhxJ8X-77" value="&lt;font style=&quot;font-size: 6px&quot;&gt;Iterator&lt;/font&gt;" style="text;html=1;strokeColor=none;fillColor=none;align=center;verticalAlign=middle;whiteSpace=wrap;rounded=0;" vertex="1" parent="2">
          <mxGeometry x="10" y="324" width="40" height="6" as="geometry" />
        </mxCell>
        <mxCell id="FQLcUKkCnjxLBZKhxJ8X-98" style="edgeStyle=orthogonalEdgeStyle;rounded=0;orthogonalLoop=1;jettySize=auto;html=1;exitX=0.5;exitY=1;exitDx=0;exitDy=0;" edge="1" parent="2" source="FQLcUKkCnjxLBZKhxJ8X-80">
          <mxGeometry relative="1" as="geometry">
            <mxPoint x="117" y="507" as="targetPoint" />
          </mxGeometry>
        </mxCell>
        <mxCell id="FQLcUKkCnjxLBZKhxJ8X-80" value="Extract the Target data CSV File&amp;nbsp;&lt;br style=&quot;padding: 0px ; margin: 0px&quot;&gt;OperateDGPSData" style="whiteSpace=wrap;html=1;fontStyle=2;" vertex="1" parent="2">
          <mxGeometry x="25" y="461" width="180" height="38" as="geometry" />
        </mxCell>
        <mxCell id="FQLcUKkCnjxLBZKhxJ8X-81" value="" style="edgeStyle=orthogonalEdgeStyle;rounded=0;orthogonalLoop=1;jettySize=auto;html=1;" edge="1" parent="2" source="FQLcUKkCnjxLBZKhxJ8X-57" target="FQLcUKkCnjxLBZKhxJ8X-80">
          <mxGeometry relative="1" as="geometry" />
        </mxCell>
        <mxCell id="FQLcUKkCnjxLBZKhxJ8X-82" value="" style="ellipse;shape=startState;fillColor=#000000;strokeColor=#ff0000;" vertex="1" parent="2">
          <mxGeometry x="272.5" y="350" width="30" height="30" as="geometry" />
        </mxCell>
        <mxCell id="FQLcUKkCnjxLBZKhxJ8X-91" style="edgeStyle=orthogonalEdgeStyle;rounded=0;orthogonalLoop=1;jettySize=auto;html=1;exitX=0;exitY=0.5;exitDx=0;exitDy=0;entryX=1;entryY=0.5;entryDx=0;entryDy=0;" edge="1" parent="2" source="FQLcUKkCnjxLBZKhxJ8X-85" target="FQLcUKkCnjxLBZKhxJ8X-80">
          <mxGeometry relative="1" as="geometry" />
        </mxCell>
        <mxCell id="FQLcUKkCnjxLBZKhxJ8X-85" value="Choose Trace CSV" style="" vertex="1" parent="2">
          <mxGeometry x="232.5" y="470" width="110" height="20" as="geometry" />
        </mxCell>
        <mxCell id="FQLcUKkCnjxLBZKhxJ8X-88" style="edgeStyle=orthogonalEdgeStyle;rounded=0;orthogonalLoop=1;jettySize=auto;html=1;entryX=1;entryY=0.5;entryDx=0;entryDy=0;" edge="1" parent="2" target="FQLcUKkCnjxLBZKhxJ8X-57">
          <mxGeometry relative="1" as="geometry">
            <mxPoint x="230" y="414" as="sourcePoint" />
            <Array as="points">
              <mxPoint x="245" y="414" />
              <mxPoint x="245" y="414" />
            </Array>
          </mxGeometry>
        </mxCell>
        <mxCell id="FQLcUKkCnjxLBZKhxJ8X-94" style="edgeStyle=orthogonalEdgeStyle;rounded=0;orthogonalLoop=1;jettySize=auto;html=1;entryX=1;entryY=0.75;entryDx=0;entryDy=0;exitX=0.5;exitY=1;exitDx=0;exitDy=0;" edge="1" parent="2" source="FQLcUKkCnjxLBZKhxJ8X-92" target="FQLcUKkCnjxLBZKhxJ8X-85">
          <mxGeometry relative="1" as="geometry">
            <Array as="points">
              <mxPoint x="380" y="485" />
            </Array>
          </mxGeometry>
        </mxCell>
        <mxCell id="FQLcUKkCnjxLBZKhxJ8X-96" value="&lt;b&gt;DGPS Data&lt;/b&gt;" style="edgeLabel;html=1;align=center;verticalAlign=middle;resizable=0;points=[];" vertex="1" connectable="0" parent="FQLcUKkCnjxLBZKhxJ8X-94">
          <mxGeometry x="-0.0797" relative="1" as="geometry">
            <mxPoint x="19.29" y="5" as="offset" />
          </mxGeometry>
        </mxCell>
        <mxCell id="FQLcUKkCnjxLBZKhxJ8X-92" value="" style="ellipse;shape=startState;fillColor=#000000;strokeColor=#ff0000;" vertex="1" parent="2">
          <mxGeometry x="365" y="440" width="30" height="30" as="geometry" />
        </mxCell>
        <mxCell id="FQLcUKkCnjxLBZKhxJ8X-89" value="Choose Trace CSV" style="" vertex="1" parent="2">
          <mxGeometry x="232.5" y="404" width="110" height="20" as="geometry" />
        </mxCell>
        <mxCell id="FQLcUKkCnjxLBZKhxJ8X-90" style="edgeStyle=orthogonalEdgeStyle;rounded=0;orthogonalLoop=1;jettySize=auto;html=1;entryX=0.5;entryY=0;entryDx=0;entryDy=0;exitX=0.482;exitY=0.81;exitDx=0;exitDy=0;exitPerimeter=0;" edge="1" parent="2" source="FQLcUKkCnjxLBZKhxJ8X-82" target="FQLcUKkCnjxLBZKhxJ8X-89">
          <mxGeometry relative="1" as="geometry">
            <Array as="points" />
          </mxGeometry>
        </mxCell>
        <mxCell id="FQLcUKkCnjxLBZKhxJ8X-95" value="&lt;b&gt;Choose Traces&lt;/b&gt;" style="edgeLabel;html=1;align=center;verticalAlign=middle;resizable=0;points=[];" vertex="1" connectable="0" parent="FQLcUKkCnjxLBZKhxJ8X-90">
          <mxGeometry x="0.6914" relative="1" as="geometry">
            <mxPoint x="40" y="-17.72" as="offset" />
          </mxGeometry>
        </mxCell>
        <mxCell id="FQLcUKkCnjxLBZKhxJ8X-100" style="edgeStyle=orthogonalEdgeStyle;rounded=0;orthogonalLoop=1;jettySize=auto;html=1;exitX=0.5;exitY=1;exitDx=0;exitDy=0;entryX=0.5;entryY=0;entryDx=0;entryDy=0;" edge="1" parent="2" source="FQLcUKkCnjxLBZKhxJ8X-97" target="FQLcUKkCnjxLBZKhxJ8X-99">
          <mxGeometry relative="1" as="geometry" />
        </mxCell>
        <mxCell id="FQLcUKkCnjxLBZKhxJ8X-97" value="Clear all Plots&#xa;ClearPlotsButtonPushed" style="fontStyle=2" vertex="1" parent="2">
          <mxGeometry x="30" y="552" width="170" height="30" as="geometry" />
        </mxCell>
        <mxCell id="FQLcUKkCnjxLBZKhxJ8X-123" style="edgeStyle=orthogonalEdgeStyle;rounded=0;orthogonalLoop=1;jettySize=auto;html=1;entryX=0.525;entryY=0.032;entryDx=0;entryDy=0;entryPerimeter=0;" edge="1" parent="2" source="FQLcUKkCnjxLBZKhxJ8X-99" target="FQLcUKkCnjxLBZKhxJ8X-121">
          <mxGeometry relative="1" as="geometry" />
        </mxCell>
        <mxCell id="FQLcUKkCnjxLBZKhxJ8X-99" value="Detections Filtering &#xa;FIT2ROI" style="fontStyle=0" vertex="1" parent="2">
          <mxGeometry x="30" y="602" width="170" height="30" as="geometry" />
        </mxCell>
        <mxCell id="FQLcUKkCnjxLBZKhxJ8X-117" style="edgeStyle=orthogonalEdgeStyle;rounded=0;orthogonalLoop=1;jettySize=auto;html=1;exitX=0.5;exitY=1;exitDx=0;exitDy=0;entryX=0.511;entryY=-0.069;entryDx=0;entryDy=0;entryPerimeter=0;" edge="1" parent="2" source="FQLcUKkCnjxLBZKhxJ8X-101" target="FQLcUKkCnjxLBZKhxJ8X-114">
          <mxGeometry relative="1" as="geometry" />
        </mxCell>
        <mxCell id="FQLcUKkCnjxLBZKhxJ8X-101" value="Plot Range &amp;amp; Range Rate&lt;br&gt;&lt;i&gt;PlotRange &lt;/i&gt;,&amp;nbsp;&lt;i&gt;PlotRangeRate&lt;/i&gt;" style="whiteSpace=wrap;html=1;fontStyle=0;" vertex="1" parent="2">
          <mxGeometry x="37.5" y="652" width="155" height="30" as="geometry" />
        </mxCell>
        <mxCell id="FQLcUKkCnjxLBZKhxJ8X-102" value="" style="edgeStyle=orthogonalEdgeStyle;rounded=0;orthogonalLoop=1;jettySize=auto;html=1;" edge="1" parent="2" source="FQLcUKkCnjxLBZKhxJ8X-99" target="FQLcUKkCnjxLBZKhxJ8X-101">
          <mxGeometry relative="1" as="geometry" />
        </mxCell>
        <mxCell id="FQLcUKkCnjxLBZKhxJ8X-114" value="LM2 Tracks" style="rhombus;fillColor=#ffffc0;strokeColor=#ff0000;" vertex="1" parent="2">
          <mxGeometry x="75" y="702" width="80" height="40" as="geometry" />
        </mxCell>
        <mxCell id="FQLcUKkCnjxLBZKhxJ8X-115" style="edgeStyle=orthogonalEdgeStyle;rounded=0;orthogonalLoop=1;jettySize=auto;html=1;exitX=0.5;exitY=1;exitDx=0;exitDy=0;entryX=0.5;entryY=0;entryDx=0;entryDy=0;" edge="1" parent="2" source="FQLcUKkCnjxLBZKhxJ8X-114" target="FQLcUKkCnjxLBZKhxJ8X-118">
          <mxGeometry relative="1" as="geometry">
            <mxPoint x="89.74" y="782" as="sourcePoint" />
            <mxPoint x="115" y="772" as="targetPoint" />
            <Array as="points" />
          </mxGeometry>
        </mxCell>
        <mxCell id="FQLcUKkCnjxLBZKhxJ8X-116" value="Yes" style="edgeLabel;html=1;align=center;verticalAlign=middle;resizable=0;points=[];" vertex="1" connectable="0" parent="FQLcUKkCnjxLBZKhxJ8X-115">
          <mxGeometry x="-0.2267" y="1" relative="1" as="geometry">
            <mxPoint x="13.5" as="offset" />
          </mxGeometry>
        </mxCell>
        <mxCell id="FQLcUKkCnjxLBZKhxJ8X-118" value="Filter Tracks&lt;br&gt;&lt;i&gt;FilterTracks&lt;/i&gt;" style="whiteSpace=wrap;html=1;fontStyle=0;" vertex="1" parent="2">
          <mxGeometry x="37.5" y="762" width="155" height="30" as="geometry" />
        </mxCell>
        <mxCell id="FQLcUKkCnjxLBZKhxJ8X-121" value="Find Inliers and Outliers in ROI&lt;br&gt;&lt;i&gt;cleandata&lt;/i&gt;" style="whiteSpace=wrap;html=1;fontStyle=0;" vertex="1" parent="2">
          <mxGeometry x="272.5" y="757" width="182.5" height="40" as="geometry" />
        </mxCell>
        <mxCell id="FQLcUKkCnjxLBZKhxJ8X-122" value="" style="edgeStyle=orthogonalEdgeStyle;rounded=0;orthogonalLoop=1;jettySize=auto;html=1;exitX=1;exitY=0.5;exitDx=0;exitDy=0;" edge="1" parent="2" source="FQLcUKkCnjxLBZKhxJ8X-118" target="FQLcUKkCnjxLBZKhxJ8X-121">
          <mxGeometry relative="1" as="geometry" />
        </mxCell>
        <mxCell id="FQLcUKkCnjxLBZKhxJ8X-125" style="edgeStyle=orthogonalEdgeStyle;rounded=0;orthogonalLoop=1;jettySize=auto;html=1;exitX=0.5;exitY=1;exitDx=0;exitDy=0;entryX=0.5;entryY=0;entryDx=0;entryDy=0;" edge="1" parent="2" source="FQLcUKkCnjxLBZKhxJ8X-124" target="FQLcUKkCnjxLBZKhxJ8X-97">
          <mxGeometry relative="1" as="geometry" />
        </mxCell>
        <mxCell id="FQLcUKkCnjxLBZKhxJ8X-124" value="Set Limits enable UI&#xa;Initialize" style="fontStyle=2" vertex="1" parent="2">
          <mxGeometry x="30" y="510" width="170" height="30" as="geometry" />
        </mxCell>
        <mxCell id="FQLcUKkCnjxLBZKhxJ8X-126" value="" style="ellipse;shape=startState;fillColor=#000000;strokeColor=#ff0000;" vertex="1" parent="2">
          <mxGeometry x="242.5" y="540" width="30" height="30" as="geometry" />
        </mxCell>
        <mxCell id="FQLcUKkCnjxLBZKhxJ8X-127" style="edgeStyle=orthogonalEdgeStyle;rounded=0;orthogonalLoop=1;jettySize=auto;html=1;exitX=0.5;exitY=1;exitDx=0;exitDy=0;entryX=0.75;entryY=0;entryDx=0;entryDy=0;" edge="1" parent="2" source="FQLcUKkCnjxLBZKhxJ8X-126" target="FQLcUKkCnjxLBZKhxJ8X-99">
          <mxGeometry relative="1" as="geometry">
            <mxPoint x="440" y="550" as="targetPoint" />
            <Array as="points">
              <mxPoint x="258" y="590" />
              <mxPoint x="158" y="590" />
            </Array>
          </mxGeometry>
        </mxCell>
        <mxCell id="FQLcUKkCnjxLBZKhxJ8X-128" value="&lt;b&gt;ROIFieldValueChanged&lt;/b&gt;" style="edgeLabel;html=1;align=center;verticalAlign=middle;resizable=0;points=[];" vertex="1" connectable="0" parent="FQLcUKkCnjxLBZKhxJ8X-127">
          <mxGeometry x="-0.697" y="-13" relative="1" as="geometry">
            <mxPoint x="-13" y="15" as="offset" />
          </mxGeometry>
        </mxCell>
        <mxCell id="4" value="Thread 3" style="swimlane;whiteSpace=wrap" parent="1" vertex="1">
          <mxGeometry x="724.5" y="128" width="280" height="570" as="geometry" />
        </mxCell>
        <mxCell id="33" value="process&#xa;command" style="" parent="4" vertex="1">
          <mxGeometry x="90" y="405" width="110" height="50" as="geometry" />
        </mxCell>
        <mxCell id="35" value="" style="edgeStyle=elbowEdgeStyle;elbow=horizontal;strokeColor=#FF0000;endArrow=open;endFill=1;rounded=0;entryX=0.25;entryY=0.5;entryPerimeter=0" parent="4" edge="1">
          <mxGeometry width="100" height="100" relative="1" as="geometry">
            <mxPoint x="-30" y="410" as="sourcePoint" />
            <mxPoint x="-124.5" y="122.5" as="targetPoint" />
            <Array as="points">
              <mxPoint x="-10" y="135" />
            </Array>
          </mxGeometry>
        </mxCell>
        <mxCell id="37" value="" style="edgeStyle=none;strokeColor=#FF0000;endArrow=open;endFill=1;rounded=0" parent="4" target="33" edge="1">
          <mxGeometry width="100" height="100" relative="1" as="geometry">
            <mxPoint x="-30" y="429.5" as="sourcePoint" />
            <mxPoint x="90" y="429.5" as="targetPoint" />
          </mxGeometry>
        </mxCell>
        <mxCell id="38" value="" style="ellipse;shape=endState;fillColor=#000000;strokeColor=#ff0000" parent="4" vertex="1">
          <mxGeometry x="130" y="500" width="30" height="30" as="geometry" />
        </mxCell>
        <mxCell id="39" value="" style="endArrow=open;strokeColor=#FF0000;endFill=1;rounded=0" parent="4" source="33" target="38" edge="1">
          <mxGeometry relative="1" as="geometry" />
        </mxCell>
      </root>
    </mxGraphModel>
  </diagram>
</mxfile>
